<mxfile host="app.diagrams.net" modified="2022-09-24T16:55:05.196Z" agent="5.0 (Windows NT 10.0; Win64; x64) AppleWebKit/537.36 (KHTML, like Gecko) Chrome/105.0.0.0 Safari/537.36 Edg/105.0.1343.50" etag="U7INc6TseEkHuUnjJ0P5" version="20.3.6" type="github">
  <diagram id="i-iJf0vgYVf8i7o0z8mV" name="Page-1">
    <mxGraphModel dx="827" dy="476" grid="1" gridSize="10" guides="1" tooltips="1" connect="1" arrows="1" fold="1" page="1" pageScale="1" pageWidth="850" pageHeight="1100" math="0" shadow="0">
      <root>
        <mxCell id="0" />
        <mxCell id="1" parent="0" />
        <mxCell id="Za69jp9n-biE8mrZsM6M-49" value="" style="verticalLabelPosition=bottom;verticalAlign=top;html=1;shape=mxgraph.basic.rect;fillColor2=none;strokeWidth=1;size=20;indent=5;fillColor=none;noLabel=1;backgroundOutline=0;" vertex="1" parent="1">
          <mxGeometry x="290" y="50" width="240" height="750" as="geometry" />
        </mxCell>
        <mxCell id="Za69jp9n-biE8mrZsM6M-1" value="Register" style="ellipse;whiteSpace=wrap;html=1;" vertex="1" parent="1">
          <mxGeometry x="360" y="80" width="100" height="60" as="geometry" />
        </mxCell>
        <mxCell id="Za69jp9n-biE8mrZsM6M-2" value="Login/Logout" style="ellipse;whiteSpace=wrap;html=1;" vertex="1" parent="1">
          <mxGeometry x="360" y="150" width="100" height="60" as="geometry" />
        </mxCell>
        <mxCell id="Za69jp9n-biE8mrZsM6M-3" value="Delete Account" style="ellipse;whiteSpace=wrap;html=1;" vertex="1" parent="1">
          <mxGeometry x="360" y="220" width="100" height="60" as="geometry" />
        </mxCell>
        <mxCell id="Za69jp9n-biE8mrZsM6M-4" value="Edit Price" style="ellipse;whiteSpace=wrap;html=1;" vertex="1" parent="1">
          <mxGeometry x="360" y="290" width="100" height="60" as="geometry" />
        </mxCell>
        <mxCell id="Za69jp9n-biE8mrZsM6M-5" value="Add Parking Area" style="ellipse;whiteSpace=wrap;html=1;" vertex="1" parent="1">
          <mxGeometry x="360" y="360" width="100" height="60" as="geometry" />
        </mxCell>
        <mxCell id="Za69jp9n-biE8mrZsM6M-6" value="Remove Parking Area" style="ellipse;whiteSpace=wrap;html=1;" vertex="1" parent="1">
          <mxGeometry x="360" y="430" width="100" height="60" as="geometry" />
        </mxCell>
        <mxCell id="Za69jp9n-biE8mrZsM6M-7" value="Add Slot" style="ellipse;whiteSpace=wrap;html=1;" vertex="1" parent="1">
          <mxGeometry x="360" y="500" width="100" height="60" as="geometry" />
        </mxCell>
        <mxCell id="Za69jp9n-biE8mrZsM6M-8" value="Remove Slot" style="ellipse;whiteSpace=wrap;html=1;" vertex="1" parent="1">
          <mxGeometry x="360" y="570" width="100" height="60" as="geometry" />
        </mxCell>
        <mxCell id="Za69jp9n-biE8mrZsM6M-9" value="Show Order" style="ellipse;whiteSpace=wrap;html=1;" vertex="1" parent="1">
          <mxGeometry x="360" y="640" width="100" height="60" as="geometry" />
        </mxCell>
        <mxCell id="Za69jp9n-biE8mrZsM6M-10" value="Forgot Password" style="ellipse;whiteSpace=wrap;html=1;" vertex="1" parent="1">
          <mxGeometry x="360" y="710" width="100" height="60" as="geometry" />
        </mxCell>
        <mxCell id="Za69jp9n-biE8mrZsM6M-11" value="Parking Owner" style="shape=umlActor;verticalLabelPosition=bottom;verticalAlign=top;html=1;outlineConnect=0;" vertex="1" parent="1">
          <mxGeometry x="80" y="390" width="30" height="60" as="geometry" />
        </mxCell>
        <mxCell id="Za69jp9n-biE8mrZsM6M-26" value="" style="endArrow=none;html=1;rounded=0;exitX=0.5;exitY=0.5;exitDx=0;exitDy=0;exitPerimeter=0;entryX=0;entryY=0.5;entryDx=0;entryDy=0;" edge="1" parent="1" source="Za69jp9n-biE8mrZsM6M-11" target="Za69jp9n-biE8mrZsM6M-1">
          <mxGeometry width="50" height="50" relative="1" as="geometry">
            <mxPoint x="400" y="500" as="sourcePoint" />
            <mxPoint x="450" y="450" as="targetPoint" />
          </mxGeometry>
        </mxCell>
        <mxCell id="Za69jp9n-biE8mrZsM6M-29" value="" style="endArrow=none;html=1;rounded=0;exitX=0.5;exitY=0.5;exitDx=0;exitDy=0;exitPerimeter=0;entryX=0;entryY=0.5;entryDx=0;entryDy=0;" edge="1" parent="1" source="Za69jp9n-biE8mrZsM6M-11" target="Za69jp9n-biE8mrZsM6M-4">
          <mxGeometry width="50" height="50" relative="1" as="geometry">
            <mxPoint x="400" y="350" as="sourcePoint" />
            <mxPoint x="360" y="330" as="targetPoint" />
          </mxGeometry>
        </mxCell>
        <mxCell id="Za69jp9n-biE8mrZsM6M-30" value="" style="endArrow=none;html=1;rounded=0;exitX=0.5;exitY=0.5;exitDx=0;exitDy=0;exitPerimeter=0;entryX=0;entryY=0.5;entryDx=0;entryDy=0;" edge="1" parent="1" source="Za69jp9n-biE8mrZsM6M-11" target="Za69jp9n-biE8mrZsM6M-5">
          <mxGeometry width="50" height="50" relative="1" as="geometry">
            <mxPoint x="400" y="350" as="sourcePoint" />
            <mxPoint x="450" y="300" as="targetPoint" />
          </mxGeometry>
        </mxCell>
        <mxCell id="Za69jp9n-biE8mrZsM6M-31" value="" style="endArrow=none;html=1;rounded=0;exitX=0.5;exitY=0.5;exitDx=0;exitDy=0;exitPerimeter=0;entryX=0;entryY=0.5;entryDx=0;entryDy=0;" edge="1" parent="1" source="Za69jp9n-biE8mrZsM6M-11" target="Za69jp9n-biE8mrZsM6M-6">
          <mxGeometry width="50" height="50" relative="1" as="geometry">
            <mxPoint x="400" y="500" as="sourcePoint" />
            <mxPoint x="450" y="450" as="targetPoint" />
          </mxGeometry>
        </mxCell>
        <mxCell id="Za69jp9n-biE8mrZsM6M-32" value="" style="endArrow=none;html=1;rounded=0;entryX=0.5;entryY=0.5;entryDx=0;entryDy=0;entryPerimeter=0;exitX=0;exitY=0.5;exitDx=0;exitDy=0;" edge="1" parent="1" source="Za69jp9n-biE8mrZsM6M-7" target="Za69jp9n-biE8mrZsM6M-11">
          <mxGeometry width="50" height="50" relative="1" as="geometry">
            <mxPoint x="400" y="640" as="sourcePoint" />
            <mxPoint x="450" y="590" as="targetPoint" />
          </mxGeometry>
        </mxCell>
        <mxCell id="Za69jp9n-biE8mrZsM6M-33" value="" style="endArrow=none;html=1;rounded=0;entryX=0.5;entryY=0.5;entryDx=0;entryDy=0;entryPerimeter=0;exitX=0;exitY=0.5;exitDx=0;exitDy=0;" edge="1" parent="1" source="Za69jp9n-biE8mrZsM6M-8" target="Za69jp9n-biE8mrZsM6M-11">
          <mxGeometry width="50" height="50" relative="1" as="geometry">
            <mxPoint x="400" y="640" as="sourcePoint" />
            <mxPoint x="450" y="590" as="targetPoint" />
          </mxGeometry>
        </mxCell>
        <mxCell id="Za69jp9n-biE8mrZsM6M-34" value="" style="endArrow=none;html=1;rounded=0;entryX=0.5;entryY=0.5;entryDx=0;entryDy=0;entryPerimeter=0;exitX=0;exitY=0.5;exitDx=0;exitDy=0;" edge="1" parent="1" source="Za69jp9n-biE8mrZsM6M-9" target="Za69jp9n-biE8mrZsM6M-11">
          <mxGeometry width="50" height="50" relative="1" as="geometry">
            <mxPoint x="400" y="640" as="sourcePoint" />
            <mxPoint x="450" y="590" as="targetPoint" />
          </mxGeometry>
        </mxCell>
        <mxCell id="Za69jp9n-biE8mrZsM6M-46" value="" style="endArrow=none;html=1;shadow=0;comic=0;sketch=0;strokeColor=default;strokeWidth=1;endSize=0;targetPerimeterSpacing=0;curved=1;jumpStyle=none;entryX=0;entryY=0.5;entryDx=0;entryDy=0;exitX=0.5;exitY=0.5;exitDx=0;exitDy=0;exitPerimeter=0;" edge="1" parent="1" source="Za69jp9n-biE8mrZsM6M-11" target="Za69jp9n-biE8mrZsM6M-2">
          <mxGeometry width="50" height="50" relative="1" as="geometry">
            <mxPoint x="400" y="340" as="sourcePoint" />
            <mxPoint x="450" y="290" as="targetPoint" />
          </mxGeometry>
        </mxCell>
        <mxCell id="Za69jp9n-biE8mrZsM6M-47" value="" style="endArrow=none;html=1;shadow=0;comic=0;sketch=0;strokeColor=default;strokeWidth=1;endSize=0;targetPerimeterSpacing=0;curved=1;jumpStyle=none;entryX=0;entryY=0.5;entryDx=0;entryDy=0;exitX=0.5;exitY=0.5;exitDx=0;exitDy=0;exitPerimeter=0;" edge="1" parent="1" source="Za69jp9n-biE8mrZsM6M-11" target="Za69jp9n-biE8mrZsM6M-3">
          <mxGeometry width="50" height="50" relative="1" as="geometry">
            <mxPoint x="400" y="340" as="sourcePoint" />
            <mxPoint x="450" y="290" as="targetPoint" />
          </mxGeometry>
        </mxCell>
        <mxCell id="Za69jp9n-biE8mrZsM6M-48" value="" style="endArrow=none;html=1;shadow=0;comic=0;sketch=0;strokeColor=default;strokeWidth=1;endSize=0;targetPerimeterSpacing=0;curved=1;jumpStyle=none;entryX=0.5;entryY=0.5;entryDx=0;entryDy=0;entryPerimeter=0;exitX=0;exitY=0.5;exitDx=0;exitDy=0;" edge="1" parent="1" source="Za69jp9n-biE8mrZsM6M-10" target="Za69jp9n-biE8mrZsM6M-11">
          <mxGeometry width="50" height="50" relative="1" as="geometry">
            <mxPoint x="400" y="640" as="sourcePoint" />
            <mxPoint x="450" y="590" as="targetPoint" />
          </mxGeometry>
        </mxCell>
      </root>
    </mxGraphModel>
  </diagram>
</mxfile>
